<?xml version="1.0" encoding="UTF-8" standalone="no"?><svg xmlns="http://www.w3.org/2000/svg" xmlns:xlink="http://www.w3.org/1999/xlink" contentScriptType="application/ecmascript" contentStyleType="text/css" height="600px" preserveAspectRatio="none" style="width:541px;height:600px;" version="1.1" viewBox="0 0 541 600" width="541px" zoomAndPan="magnify"><defs><filter height="300%" id="f1q4sheiqnf926" width="300%" x="-1" y="-1"><feGaussianBlur result="blurOut" stdDeviation="2.0"/><feColorMatrix in="blurOut" result="blurOut2" type="matrix" values="0 0 0 0 0 0 0 0 0 0 0 0 0 0 0 0 0 0 .4 0"/><feOffset dx="4.0" dy="4.0" in="blurOut2" result="blurOut3"/><feBlend in="SourceGraphic" in2="blurOut3" mode="normal"/></filter></defs><g><line style="stroke: #A80036; stroke-width: 1.0; stroke-dasharray: 5.0,5.0;" x1="32" x2="32" y1="65.2969" y2="526.8203"/><line style="stroke: #A80036; stroke-width: 1.0; stroke-dasharray: 5.0,5.0;" x1="195" x2="195" y1="65.2969" y2="526.8203"/><line style="stroke: #A80036; stroke-width: 1.0; stroke-dasharray: 5.0,5.0;" x1="503.5" x2="503.5" y1="65.2969" y2="526.8203"/><text fill="#000000" font-family="sans-serif" font-size="14" lengthAdjust="spacingAndGlyphs" textLength="43" x="8" y="61.9951">DLT_A</text><path d="M14.5,13 C14.5,3 32.5,3 32.5,3 C32.5,3 50.5,3 50.5,13 L50.5,39 C50.5,49 32.5,49 32.5,49 C32.5,49 14.5,49 14.5,39 L14.5,13 " fill="#FEFECE" filter="url(#f1q4sheiqnf926)" style="stroke: #000000; stroke-width: 1.5;"/><path d="M14.5,13 C14.5,23 32.5,23 32.5,23 C32.5,23 50.5,23 50.5,13 " fill="none" style="stroke: #000000; stroke-width: 1.5;"/><text fill="#000000" font-family="sans-serif" font-size="14" lengthAdjust="spacingAndGlyphs" textLength="43" x="8" y="538.8154">DLT_A</text><path d="M14.5,552.1172 C14.5,542.1172 32.5,542.1172 32.5,542.1172 C32.5,542.1172 50.5,542.1172 50.5,552.1172 L50.5,578.1172 C50.5,588.1172 32.5,588.1172 32.5,588.1172 C32.5,588.1172 14.5,588.1172 14.5,578.1172 L14.5,552.1172 " fill="#FEFECE" filter="url(#f1q4sheiqnf926)" style="stroke: #000000; stroke-width: 1.5;"/><path d="M14.5,552.1172 C14.5,562.1172 32.5,562.1172 32.5,562.1172 C32.5,562.1172 50.5,562.1172 50.5,552.1172 " fill="none" style="stroke: #000000; stroke-width: 1.5;"/><rect fill="#FEFECE" filter="url(#f1q4sheiqnf926)" height="30.2969" style="stroke: #A80036; stroke-width: 1.5;" width="53" x="167" y="30"/><text fill="#000000" font-family="sans-serif" font-size="14" lengthAdjust="spacingAndGlyphs" textLength="39" x="174" y="49.9951">Client</text><rect fill="#FEFECE" filter="url(#f1q4sheiqnf926)" height="30.2969" style="stroke: #A80036; stroke-width: 1.5;" width="53" x="167" y="525.8203"/><text fill="#000000" font-family="sans-serif" font-size="14" lengthAdjust="spacingAndGlyphs" textLength="39" x="174" y="545.8154">Client</text><rect fill="#FEFECE" filter="url(#f1q4sheiqnf926)" height="30.2969" style="stroke: #A80036; stroke-width: 1.5;" width="58" x="472.5" y="30"/><text fill="#000000" font-family="sans-serif" font-size="14" lengthAdjust="spacingAndGlyphs" textLength="44" x="479.5" y="49.9951">Server</text><rect fill="#FEFECE" filter="url(#f1q4sheiqnf926)" height="30.2969" style="stroke: #A80036; stroke-width: 1.5;" width="58" x="472.5" y="525.8203"/><text fill="#000000" font-family="sans-serif" font-size="14" lengthAdjust="spacingAndGlyphs" textLength="44" x="479.5" y="545.8154">Server</text><polygon fill="#A80036" points="491.5,168.0938,501.5,172.0938,491.5,176.0938,495.5,172.0938" style="stroke: #A80036; stroke-width: 1.0;"/><line style="stroke: #A80036; stroke-width: 1.0;" x1="195.5" x2="497.5" y1="172.0938" y2="172.0938"/><text fill="#000000" font-family="sans-serif" font-size="13" lengthAdjust="spacingAndGlyphs" textLength="72" x="202.5" y="91.3638">Client Hello</text><text fill="#000000" font-family="sans-serif" font-size="13" lengthAdjust="spacingAndGlyphs" textLength="280" x="202.5" y="106.4966">+ client_cert_types*=(X.509, RawPublicKey)</text><text fill="#000000" font-family="sans-serif" font-size="13" lengthAdjust="spacingAndGlyphs" textLength="219" x="202.5" y="121.6294">+ server_cert_types*=(VC, X.509)</text><text fill="#000000" font-family="sans-serif" font-size="13" lengthAdjust="spacingAndGlyphs" textLength="87" x="202.5" y="136.7622">+ key_share*</text><text fill="#000000" font-family="sans-serif" font-size="13" lengthAdjust="spacingAndGlyphs" textLength="73" x="202.5" y="151.895">+ sig_algs*</text><text fill="#000000" font-family="sans-serif" font-size="13" lengthAdjust="spacingAndGlyphs" textLength="150" x="202.5" y="167.0278">+ did_methods*=(iota)</text><polygon fill="#A80036" points="206.5,212.3594,196.5,216.3594,206.5,220.3594,202.5,216.3594" style="stroke: #A80036; stroke-width: 1.0;"/><line style="stroke: #A80036; stroke-width: 1.0;" x1="200.5" x2="502.5" y1="216.3594" y2="216.3594"/><text fill="#000000" font-family="sans-serif" font-size="13" lengthAdjust="spacingAndGlyphs" textLength="78" x="414.5" y="196.1606">Server Hello</text><text fill="#000000" font-family="sans-serif" font-size="13" lengthAdjust="spacingAndGlyphs" textLength="87" x="409.5" y="211.2935">+ key_share*</text><polygon fill="#A80036" points="206.5,271.7578,196.5,275.7578,206.5,279.7578,202.5,275.7578" style="stroke: #A80036; stroke-width: 1.0;"/><line style="stroke: #A80036; stroke-width: 1.0;" x1="200.5" x2="502.5" y1="275.7578" y2="275.7578"/><text fill="#000000" font-family="sans-serif" font-size="13" lengthAdjust="spacingAndGlyphs" textLength="149" x="343.5" y="240.4263">{ Encrypted Extensions</text><text fill="#000000" font-family="sans-serif" font-size="13" lengthAdjust="spacingAndGlyphs" textLength="177" x="315.5" y="255.5591">+ client_cert_types*=X.509</text><text fill="#000000" font-family="sans-serif" font-size="13" lengthAdjust="spacingAndGlyphs" textLength="177" x="319.5" y="270.6919">+ server_cert_types*=VC }</text><polygon fill="#A80036" points="206.5,300.8906,196.5,304.8906,206.5,308.8906,202.5,304.8906" style="stroke: #A80036; stroke-width: 1.0;"/><line style="stroke: #A80036; stroke-width: 1.0;" x1="200.5" x2="502.5" y1="304.8906" y2="304.8906"/><text fill="#000000" font-family="sans-serif" font-size="13" lengthAdjust="spacingAndGlyphs" textLength="149" x="347.5" y="299.8247">{ Certificate request* }</text><polygon fill="#A80036" points="206.5,330.0234,196.5,334.0234,206.5,338.0234,202.5,334.0234" style="stroke: #A80036; stroke-width: 1.0;"/><line style="stroke: #A80036; stroke-width: 1.0;" x1="200.5" x2="502.5" y1="334.0234" y2="334.0234"/><text fill="#000000" font-family="sans-serif" font-size="13" lengthAdjust="spacingAndGlyphs" textLength="96" x="400.5" y="328.9575">{ Certificate* }</text><polygon fill="#A80036" points="206.5,359.1563,196.5,363.1563,206.5,367.1563,202.5,363.1563" style="stroke: #A80036; stroke-width: 1.0;"/><line style="stroke: #A80036; stroke-width: 1.0;" x1="200.5" x2="502.5" y1="363.1563" y2="363.1563"/><text fill="#000000" font-family="sans-serif" font-size="13" lengthAdjust="spacingAndGlyphs" textLength="136" x="360.5" y="358.0903">{ Certificate Verify* }</text><polygon fill="#A80036" points="206.5,388.2891,196.5,392.2891,206.5,396.2891,202.5,392.2891" style="stroke: #A80036; stroke-width: 1.0;"/><line style="stroke: #A80036; stroke-width: 1.0;" x1="200.5" x2="502.5" y1="392.2891" y2="392.2891"/><text fill="#000000" font-family="sans-serif" font-size="13" lengthAdjust="spacingAndGlyphs" textLength="76" x="420.5" y="387.2231">{ Finished }</text><polygon fill="#A80036" points="43.5,417.4219,33.5,421.4219,43.5,425.4219,39.5,421.4219" style="stroke: #A80036; stroke-width: 1.0;"/><line style="stroke: #A80036; stroke-width: 1.0;" x1="37.5" x2="194.5" y1="421.4219" y2="421.4219"/><text fill="#000000" font-family="sans-serif" font-size="13" lengthAdjust="spacingAndGlyphs" textLength="76" x="112.5" y="416.356">DID Resolve</text><polygon fill="#A80036" points="491.5,446.5547,501.5,450.5547,491.5,454.5547,495.5,450.5547" style="stroke: #A80036; stroke-width: 1.0;"/><line style="stroke: #A80036; stroke-width: 1.0;" x1="195.5" x2="497.5" y1="450.5547" y2="450.5547"/><text fill="#000000" font-family="sans-serif" font-size="13" lengthAdjust="spacingAndGlyphs" textLength="96" x="202.5" y="445.4888">{ Certificate* }</text><polygon fill="#A80036" points="491.5,475.6875,501.5,479.6875,491.5,483.6875,495.5,479.6875" style="stroke: #A80036; stroke-width: 1.0;"/><line style="stroke: #A80036; stroke-width: 1.0;" x1="195.5" x2="497.5" y1="479.6875" y2="479.6875"/><text fill="#000000" font-family="sans-serif" font-size="13" lengthAdjust="spacingAndGlyphs" textLength="136" x="202.5" y="474.6216">{ Certificate Verify* }</text><polygon fill="#A80036" points="491.5,504.8203,501.5,508.8203,491.5,512.8203,495.5,508.8203" style="stroke: #A80036; stroke-width: 1.0;"/><line style="stroke: #A80036; stroke-width: 1.0;" x1="195.5" x2="497.5" y1="508.8203" y2="508.8203"/><text fill="#000000" font-family="sans-serif" font-size="13" lengthAdjust="spacingAndGlyphs" textLength="76" x="202.5" y="503.7544">{ Finished }</text><!--MD5=[876fcb823f6e03641413c1632a3c6b3a]
@startuml clnt-x509-srvr-vc
participant Client order 2
participant Server order 3
database DLT_A order 1
skinparam sequenceMessageAlign direction
skinparam ParticipantPadding 100

Client -> Server : Client Hello \n+ client_cert_types*=(X.509, RawPublicKey) \n+ server_cert_types*=(VC, X.509) \n+ key_share* \n+ sig_algs* \n+ did_methods*=(iota)
Server -> Client : Server Hello \n+ key_share*
Server -> Client : { Encrypted Extensions \n+ client_cert_types*=X.509 \n+ server_cert_types*=VC }
Server -> Client : { Certificate request* }
Server -> Client : { Certificate* }
Server -> Client : { Certificate Verify* }
Server -> Client : { Finished }
Client -> DLT_A : DID Resolve
Client -> Server : { Certificate* }
Client -> Server : { Certificate Verify* }
Client -> Server : { Finished }
@enduml

PlantUML version 1.2020.02(Sun Mar 01 11:22:07 CET 2020)
(GPL source distribution)
Java Runtime: OpenJDK Runtime Environment
JVM: OpenJDK 64-Bit Server VM
Java Version: 11.0.20.1+1-post-Ubuntu-0ubuntu122.04
Operating System: Linux
Default Encoding: UTF-8
Language: en
Country: US
--></g></svg>