<?xml version="1.0" encoding="UTF-8" standalone="no"?><svg xmlns="http://www.w3.org/2000/svg" xmlns:xlink="http://www.w3.org/1999/xlink" contentScriptType="application/ecmascript" contentStyleType="text/css" height="644px" preserveAspectRatio="none" style="width:724px;height:644px;" version="1.1" viewBox="0 0 724 644" width="724px" zoomAndPan="magnify"><defs><filter height="300%" id="f14r1fg2bnhcu3" width="300%" x="-1" y="-1"><feGaussianBlur result="blurOut" stdDeviation="2.0"/><feColorMatrix in="blurOut" result="blurOut2" type="matrix" values="0 0 0 0 0 0 0 0 0 0 0 0 0 0 0 0 0 0 .4 0"/><feOffset dx="4.0" dy="4.0" in="blurOut2" result="blurOut3"/><feBlend in="SourceGraphic" in2="blurOut3" mode="normal"/></filter></defs><g><line style="stroke: #A80036; stroke-width: 1.0; stroke-dasharray: 5.0,5.0;" x1="32" x2="32" y1="65.2969" y2="571.0859"/><line style="stroke: #A80036; stroke-width: 1.0; stroke-dasharray: 5.0,5.0;" x1="195" x2="195" y1="65.2969" y2="571.0859"/><line style="stroke: #A80036; stroke-width: 1.0; stroke-dasharray: 5.0,5.0;" x1="527.5" x2="527.5" y1="65.2969" y2="571.0859"/><line style="stroke: #A80036; stroke-width: 1.0; stroke-dasharray: 5.0,5.0;" x1="693.5" x2="693.5" y1="65.2969" y2="571.0859"/><text fill="#000000" font-family="sans-serif" font-size="14" lengthAdjust="spacingAndGlyphs" textLength="43" x="8" y="61.9951">DLT_A</text><path d="M14.5,13 C14.5,3 32.5,3 32.5,3 C32.5,3 50.5,3 50.5,13 L50.5,39 C50.5,49 32.5,49 32.5,49 C32.5,49 14.5,49 14.5,39 L14.5,13 " fill="#FEFECE" filter="url(#f14r1fg2bnhcu3)" style="stroke: #000000; stroke-width: 1.5;"/><path d="M14.5,13 C14.5,23 32.5,23 32.5,23 C32.5,23 50.5,23 50.5,13 " fill="none" style="stroke: #000000; stroke-width: 1.5;"/><text fill="#000000" font-family="sans-serif" font-size="14" lengthAdjust="spacingAndGlyphs" textLength="43" x="8" y="583.0811">DLT_A</text><path d="M14.5,596.3828 C14.5,586.3828 32.5,586.3828 32.5,586.3828 C32.5,586.3828 50.5,586.3828 50.5,596.3828 L50.5,622.3828 C50.5,632.3828 32.5,632.3828 32.5,632.3828 C32.5,632.3828 14.5,632.3828 14.5,622.3828 L14.5,596.3828 " fill="#FEFECE" filter="url(#f14r1fg2bnhcu3)" style="stroke: #000000; stroke-width: 1.5;"/><path d="M14.5,596.3828 C14.5,606.3828 32.5,606.3828 32.5,606.3828 C32.5,606.3828 50.5,606.3828 50.5,596.3828 " fill="none" style="stroke: #000000; stroke-width: 1.5;"/><rect fill="#FEFECE" filter="url(#f14r1fg2bnhcu3)" height="30.2969" style="stroke: #A80036; stroke-width: 1.5;" width="53" x="167" y="30"/><text fill="#000000" font-family="sans-serif" font-size="14" lengthAdjust="spacingAndGlyphs" textLength="39" x="174" y="49.9951">Client</text><rect fill="#FEFECE" filter="url(#f14r1fg2bnhcu3)" height="30.2969" style="stroke: #A80036; stroke-width: 1.5;" width="53" x="167" y="570.0859"/><text fill="#000000" font-family="sans-serif" font-size="14" lengthAdjust="spacingAndGlyphs" textLength="39" x="174" y="590.0811">Client</text><rect fill="#FEFECE" filter="url(#f14r1fg2bnhcu3)" height="30.2969" style="stroke: #A80036; stroke-width: 1.5;" width="58" x="496.5" y="30"/><text fill="#000000" font-family="sans-serif" font-size="14" lengthAdjust="spacingAndGlyphs" textLength="44" x="503.5" y="49.9951">Server</text><rect fill="#FEFECE" filter="url(#f14r1fg2bnhcu3)" height="30.2969" style="stroke: #A80036; stroke-width: 1.5;" width="58" x="496.5" y="570.0859"/><text fill="#000000" font-family="sans-serif" font-size="14" lengthAdjust="spacingAndGlyphs" textLength="44" x="503.5" y="590.0811">Server</text><text fill="#000000" font-family="sans-serif" font-size="14" lengthAdjust="spacingAndGlyphs" textLength="44" x="668.5" y="61.9951">DLT_B</text><path d="M675.5,13 C675.5,3 693.5,3 693.5,3 C693.5,3 711.5,3 711.5,13 L711.5,39 C711.5,49 693.5,49 693.5,49 C693.5,49 675.5,49 675.5,39 L675.5,13 " fill="#FEFECE" filter="url(#f14r1fg2bnhcu3)" style="stroke: #000000; stroke-width: 1.5;"/><path d="M675.5,13 C675.5,23 693.5,23 693.5,23 C693.5,23 711.5,23 711.5,13 " fill="none" style="stroke: #000000; stroke-width: 1.5;"/><text fill="#000000" font-family="sans-serif" font-size="14" lengthAdjust="spacingAndGlyphs" textLength="44" x="668.5" y="583.0811">DLT_B</text><path d="M675.5,596.3828 C675.5,586.3828 693.5,586.3828 693.5,586.3828 C693.5,586.3828 711.5,586.3828 711.5,596.3828 L711.5,622.3828 C711.5,632.3828 693.5,632.3828 693.5,632.3828 C693.5,632.3828 675.5,632.3828 675.5,622.3828 L675.5,596.3828 " fill="#FEFECE" filter="url(#f14r1fg2bnhcu3)" style="stroke: #000000; stroke-width: 1.5;"/><path d="M675.5,596.3828 C675.5,606.3828 693.5,606.3828 693.5,606.3828 C693.5,606.3828 711.5,606.3828 711.5,596.3828 " fill="none" style="stroke: #000000; stroke-width: 1.5;"/><polygon fill="#A80036" points="515.5,168.0938,525.5,172.0938,515.5,176.0938,519.5,172.0938" style="stroke: #A80036; stroke-width: 1.0;"/><line style="stroke: #A80036; stroke-width: 1.0;" x1="195.5" x2="521.5" y1="172.0938" y2="172.0938"/><text fill="#000000" font-family="sans-serif" font-size="13" lengthAdjust="spacingAndGlyphs" textLength="72" x="202.5" y="91.3638">Client Hello</text><text fill="#000000" font-family="sans-serif" font-size="13" lengthAdjust="spacingAndGlyphs" textLength="298" x="202.5" y="106.4966">+ client_cert_types*=(VC,X.509,RawPublicKey)</text><text fill="#000000" font-family="sans-serif" font-size="13" lengthAdjust="spacingAndGlyphs" textLength="304" x="202.5" y="121.6294">+ server_cert_types*=(X.509,VC,RawPublicKey)</text><text fill="#000000" font-family="sans-serif" font-size="13" lengthAdjust="spacingAndGlyphs" textLength="172" x="202.5" y="136.7622">+ did_methods=(iota,btcr)</text><text fill="#000000" font-family="sans-serif" font-size="13" lengthAdjust="spacingAndGlyphs" textLength="87" x="202.5" y="151.895">+ key_share*</text><text fill="#000000" font-family="sans-serif" font-size="13" lengthAdjust="spacingAndGlyphs" textLength="73" x="202.5" y="167.0278">+ sig_algs*</text><polygon fill="#A80036" points="206.5,212.3594,196.5,216.3594,206.5,220.3594,202.5,216.3594" style="stroke: #A80036; stroke-width: 1.0;"/><line style="stroke: #A80036; stroke-width: 1.0;" x1="200.5" x2="526.5" y1="216.3594" y2="216.3594"/><text fill="#000000" font-family="sans-serif" font-size="13" lengthAdjust="spacingAndGlyphs" textLength="78" x="438.5" y="196.1606">Server Hello</text><text fill="#000000" font-family="sans-serif" font-size="13" lengthAdjust="spacingAndGlyphs" textLength="87" x="433.5" y="211.2935">+ key_share*</text><polygon fill="#A80036" points="206.5,271.7578,196.5,275.7578,206.5,279.7578,202.5,275.7578" style="stroke: #A80036; stroke-width: 1.0;"/><line style="stroke: #A80036; stroke-width: 1.0;" x1="200.5" x2="526.5" y1="275.7578" y2="275.7578"/><text fill="#000000" font-family="sans-serif" font-size="13" lengthAdjust="spacingAndGlyphs" textLength="149" x="367.5" y="240.4263">{ Encrypted Extensions</text><text fill="#000000" font-family="sans-serif" font-size="13" lengthAdjust="spacingAndGlyphs" textLength="159" x="357.5" y="255.5591">+ client_cert_types*=VC</text><text fill="#000000" font-family="sans-serif" font-size="13" lengthAdjust="spacingAndGlyphs" textLength="177" x="343.5" y="270.6919">+ server_cert_types*=VC }</text><polygon fill="#A80036" points="206.5,316.0234,196.5,320.0234,206.5,324.0234,202.5,320.0234" style="stroke: #A80036; stroke-width: 1.0;"/><line style="stroke: #A80036; stroke-width: 1.0;" x1="200.5" x2="526.5" y1="320.0234" y2="320.0234"/><text fill="#000000" font-family="sans-serif" font-size="13" lengthAdjust="spacingAndGlyphs" textLength="137" x="379.5" y="299.8247">{ Certificate request*</text><text fill="#000000" font-family="sans-serif" font-size="13" lengthAdjust="spacingAndGlyphs" textLength="162" x="358.5" y="314.9575">+ did_methods*=(iota) }</text><polygon fill="#A80036" points="206.5,345.1563,196.5,349.1563,206.5,353.1563,202.5,349.1563" style="stroke: #A80036; stroke-width: 1.0;"/><line style="stroke: #A80036; stroke-width: 1.0;" x1="200.5" x2="526.5" y1="349.1563" y2="349.1563"/><text fill="#000000" font-family="sans-serif" font-size="13" lengthAdjust="spacingAndGlyphs" textLength="96" x="424.5" y="344.0903">{ Certificate* }</text><polygon fill="#A80036" points="206.5,374.2891,196.5,378.2891,206.5,382.2891,202.5,378.2891" style="stroke: #A80036; stroke-width: 1.0;"/><line style="stroke: #A80036; stroke-width: 1.0;" x1="200.5" x2="526.5" y1="378.2891" y2="378.2891"/><text fill="#000000" font-family="sans-serif" font-size="13" lengthAdjust="spacingAndGlyphs" textLength="136" x="384.5" y="373.2231">{ Certificate Verify* }</text><polygon fill="#A80036" points="206.5,403.4219,196.5,407.4219,206.5,411.4219,202.5,407.4219" style="stroke: #A80036; stroke-width: 1.0;"/><line style="stroke: #A80036; stroke-width: 1.0;" x1="200.5" x2="526.5" y1="407.4219" y2="407.4219"/><text fill="#000000" font-family="sans-serif" font-size="13" lengthAdjust="spacingAndGlyphs" textLength="76" x="444.5" y="402.356">{ Finished }</text><polygon fill="#A80036" points="43.5,432.5547,33.5,436.5547,43.5,440.5547,39.5,436.5547" style="stroke: #A80036; stroke-width: 1.0;"/><line style="stroke: #A80036; stroke-width: 1.0; stroke-dasharray: 2.0,2.0;" x1="37.5" x2="194.5" y1="436.5547" y2="436.5547"/><text fill="#000000" font-family="sans-serif" font-size="13" lengthAdjust="spacingAndGlyphs" textLength="76" x="112.5" y="431.4888">DID Resolve</text><polygon fill="#A80036" points="515.5,461.6875,525.5,465.6875,515.5,469.6875,519.5,465.6875" style="stroke: #A80036; stroke-width: 1.0;"/><line style="stroke: #A80036; stroke-width: 1.0;" x1="195.5" x2="521.5" y1="465.6875" y2="465.6875"/><text fill="#000000" font-family="sans-serif" font-size="13" lengthAdjust="spacingAndGlyphs" textLength="96" x="202.5" y="460.6216">{ Certificate* }</text><polygon fill="#A80036" points="515.5,490.8203,525.5,494.8203,515.5,498.8203,519.5,494.8203" style="stroke: #A80036; stroke-width: 1.0;"/><line style="stroke: #A80036; stroke-width: 1.0;" x1="195.5" x2="521.5" y1="494.8203" y2="494.8203"/><text fill="#000000" font-family="sans-serif" font-size="13" lengthAdjust="spacingAndGlyphs" textLength="136" x="202.5" y="489.7544">{ Certificate Verify* }</text><polygon fill="#A80036" points="515.5,519.9531,525.5,523.9531,515.5,527.9531,519.5,523.9531" style="stroke: #A80036; stroke-width: 1.0;"/><line style="stroke: #A80036; stroke-width: 1.0;" x1="195.5" x2="521.5" y1="523.9531" y2="523.9531"/><text fill="#000000" font-family="sans-serif" font-size="13" lengthAdjust="spacingAndGlyphs" textLength="76" x="202.5" y="518.8872">{ Finished }</text><polygon fill="#A80036" points="681.5,549.0859,691.5,553.0859,681.5,557.0859,685.5,553.0859" style="stroke: #A80036; stroke-width: 1.0;"/><line style="stroke: #A80036; stroke-width: 1.0; stroke-dasharray: 2.0,2.0;" x1="527.5" x2="687.5" y1="553.0859" y2="553.0859"/><text fill="#000000" font-family="sans-serif" font-size="13" lengthAdjust="spacingAndGlyphs" textLength="76" x="534.5" y="548.02">DID Resolve</text><!--MD5=[4bcbdd0e88d3827557de084e3896d028]
@startuml mutual-vc
database DLT_A order 1
participant Client order 2
participant Server order 3
database DLT_B order 4
skinparam sequenceMessageAlign direction
skinparam ParticipantPadding 100

Client -> Server : Client Hello \n+ client_cert_types*=(VC,X.509,RawPublicKey) \n+ server_cert_types*=(X.509,VC,RawPublicKey) \n+ did_methods=(iota,btcr) \n+ key_share* \n+ sig_algs*
Server -> Client : Server Hello \n+ key_share*
Server -> Client : { Encrypted Extensions \n+ client_cert_types*=VC \n+ server_cert_types*=VC }
Server -> Client : { Certificate request* \n+ did_methods*=(iota) }
Server -> Client : { Certificate* }
Server -> Client : { Certificate Verify* }
Server -> Client : { Finished }
Client - -> DLT_A : DID Resolve
Client -> Server : { Certificate* }
Client -> Server : { Certificate Verify* }
Client -> Server : { Finished }
Server - -> DLT_B : DID Resolve
@enduml

PlantUML version 1.2020.02(Sun Mar 01 11:22:07 CET 2020)
(GPL source distribution)
Java Runtime: OpenJDK Runtime Environment
JVM: OpenJDK 64-Bit Server VM
Java Version: 11.0.20.1+1-post-Ubuntu-0ubuntu122.04
Operating System: Linux
Default Encoding: UTF-8
Language: en
Country: US
--></g></svg>