<?xml version="1.0" encoding="UTF-8" standalone="no"?><svg xmlns="http://www.w3.org/2000/svg" xmlns:xlink="http://www.w3.org/1999/xlink" contentScriptType="application/ecmascript" contentStyleType="text/css" height="482px" preserveAspectRatio="none" style="width:492px;height:482px;" version="1.1" viewBox="0 0 492 482" width="492px" zoomAndPan="magnify"><defs><filter height="300%" id="f7d39zrgpp68c" width="300%" x="-1" y="-1"><feGaussianBlur result="blurOut" stdDeviation="2.0"/><feColorMatrix in="blurOut" result="blurOut2" type="matrix" values="0 0 0 0 0 0 0 0 0 0 0 0 0 0 0 0 0 0 .4 0"/><feOffset dx="4.0" dy="4.0" in="blurOut2" result="blurOut3"/><feBlend in="SourceGraphic" in2="blurOut3" mode="normal"/></filter></defs><g><line style="stroke: #A80036; stroke-width: 1.0; stroke-dasharray: 5.0,5.0;" x1="27" x2="27" y1="65.2969" y2="409.1563"/><line style="stroke: #A80036; stroke-width: 1.0; stroke-dasharray: 5.0,5.0;" x1="184" x2="184" y1="65.2969" y2="409.1563"/><line style="stroke: #A80036; stroke-width: 1.0; stroke-dasharray: 5.0,5.0;" x1="454" x2="454" y1="65.2969" y2="409.1563"/><text fill="#000000" font-family="sans-serif" font-size="14" lengthAdjust="spacingAndGlyphs" textLength="32" x="8" y="61.9951">IOTA</text><path d="M9,13 C9,3 27,3 27,3 C27,3 45,3 45,13 L45,39 C45,49 27,49 27,49 C27,49 9,49 9,39 L9,13 " fill="#FEFECE" filter="url(#f7d39zrgpp68c)" style="stroke: #000000; stroke-width: 1.5;"/><path d="M9,13 C9,23 27,23 27,23 C27,23 45,23 45,13 " fill="none" style="stroke: #000000; stroke-width: 1.5;"/><text fill="#000000" font-family="sans-serif" font-size="14" lengthAdjust="spacingAndGlyphs" textLength="32" x="8" y="421.1514">IOTA</text><path d="M9,434.4531 C9,424.4531 27,424.4531 27,424.4531 C27,424.4531 45,424.4531 45,434.4531 L45,460.4531 C45,470.4531 27,470.4531 27,470.4531 C27,470.4531 9,470.4531 9,460.4531 L9,434.4531 " fill="#FEFECE" filter="url(#f7d39zrgpp68c)" style="stroke: #000000; stroke-width: 1.5;"/><path d="M9,434.4531 C9,444.4531 27,444.4531 27,444.4531 C27,444.4531 45,444.4531 45,434.4531 " fill="none" style="stroke: #000000; stroke-width: 1.5;"/><rect fill="#FEFECE" filter="url(#f7d39zrgpp68c)" height="30.2969" style="stroke: #A80036; stroke-width: 1.5;" width="53" x="156" y="30"/><text fill="#000000" font-family="sans-serif" font-size="14" lengthAdjust="spacingAndGlyphs" textLength="39" x="163" y="49.9951">Client</text><rect fill="#FEFECE" filter="url(#f7d39zrgpp68c)" height="30.2969" style="stroke: #A80036; stroke-width: 1.5;" width="53" x="156" y="408.1563"/><text fill="#000000" font-family="sans-serif" font-size="14" lengthAdjust="spacingAndGlyphs" textLength="39" x="163" y="428.1514">Client</text><rect fill="#FEFECE" filter="url(#f7d39zrgpp68c)" height="30.2969" style="stroke: #A80036; stroke-width: 1.5;" width="58" x="423" y="30"/><text fill="#000000" font-family="sans-serif" font-size="14" lengthAdjust="spacingAndGlyphs" textLength="44" x="430" y="49.9951">Server</text><rect fill="#FEFECE" filter="url(#f7d39zrgpp68c)" height="30.2969" style="stroke: #A80036; stroke-width: 1.5;" width="58" x="423" y="408.1563"/><text fill="#000000" font-family="sans-serif" font-size="14" lengthAdjust="spacingAndGlyphs" textLength="44" x="430" y="428.1514">Server</text><polygon fill="#A80036" points="442,152.9609,452,156.9609,442,160.9609,446,156.9609" style="stroke: #A80036; stroke-width: 1.0;"/><line style="stroke: #A80036; stroke-width: 1.0;" x1="184.5" x2="448" y1="156.9609" y2="156.9609"/><text fill="#000000" font-family="sans-serif" font-size="13" lengthAdjust="spacingAndGlyphs" textLength="72" x="191.5" y="91.3638">Client Hello</text><text fill="#000000" font-family="sans-serif" font-size="13" lengthAdjust="spacingAndGlyphs" textLength="215" x="191.5" y="106.4966">+ server_cert_types*=(VC,X.509)</text><text fill="#000000" font-family="sans-serif" font-size="13" lengthAdjust="spacingAndGlyphs" textLength="179" x="191.5" y="121.6294">+ did_methods*=(iota,btcr)</text><text fill="#000000" font-family="sans-serif" font-size="13" lengthAdjust="spacingAndGlyphs" textLength="87" x="191.5" y="136.7622">+ key_share*</text><text fill="#000000" font-family="sans-serif" font-size="13" lengthAdjust="spacingAndGlyphs" textLength="73" x="191.5" y="151.895">+ sig_algs*</text><polygon fill="#A80036" points="195.5,197.2266,185.5,201.2266,195.5,205.2266,191.5,201.2266" style="stroke: #A80036; stroke-width: 1.0;"/><line style="stroke: #A80036; stroke-width: 1.0;" x1="189.5" x2="453" y1="201.2266" y2="201.2266"/><text fill="#000000" font-family="sans-serif" font-size="13" lengthAdjust="spacingAndGlyphs" textLength="78" x="365" y="181.0278">Server Hello</text><text fill="#000000" font-family="sans-serif" font-size="13" lengthAdjust="spacingAndGlyphs" textLength="87" x="360" y="196.1606">+ key_share*</text><polygon fill="#A80036" points="195.5,241.4922,185.5,245.4922,195.5,249.4922,191.5,245.4922" style="stroke: #A80036; stroke-width: 1.0;"/><line style="stroke: #A80036; stroke-width: 1.0;" x1="189.5" x2="453" y1="245.4922" y2="245.4922"/><text fill="#000000" font-family="sans-serif" font-size="13" lengthAdjust="spacingAndGlyphs" textLength="149" x="294" y="225.2935">{ Encrypted Extensions</text><text fill="#000000" font-family="sans-serif" font-size="13" lengthAdjust="spacingAndGlyphs" textLength="177" x="270" y="240.4263">+ server_cert_types*=VC }</text><polygon fill="#A80036" points="195.5,270.625,185.5,274.625,195.5,278.625,191.5,274.625" style="stroke: #A80036; stroke-width: 1.0;"/><line style="stroke: #A80036; stroke-width: 1.0;" x1="189.5" x2="453" y1="274.625" y2="274.625"/><text fill="#000000" font-family="sans-serif" font-size="13" lengthAdjust="spacingAndGlyphs" textLength="96" x="351" y="269.5591">{ Certificate* }</text><polygon fill="#A80036" points="195.5,299.7578,185.5,303.7578,195.5,307.7578,191.5,303.7578" style="stroke: #A80036; stroke-width: 1.0;"/><line style="stroke: #A80036; stroke-width: 1.0;" x1="189.5" x2="453" y1="303.7578" y2="303.7578"/><text fill="#000000" font-family="sans-serif" font-size="13" lengthAdjust="spacingAndGlyphs" textLength="136" x="311" y="298.6919">{ Certificate Verify* }</text><polygon fill="#A80036" points="195.5,328.8906,185.5,332.8906,195.5,336.8906,191.5,332.8906" style="stroke: #A80036; stroke-width: 1.0;"/><line style="stroke: #A80036; stroke-width: 1.0;" x1="189.5" x2="453" y1="332.8906" y2="332.8906"/><text fill="#000000" font-family="sans-serif" font-size="13" lengthAdjust="spacingAndGlyphs" textLength="76" x="371" y="327.8247">{ Finished }</text><polygon fill="#A80036" points="38,358.0234,28,362.0234,38,366.0234,34,362.0234" style="stroke: #A80036; stroke-width: 1.0;"/><line style="stroke: #A80036; stroke-width: 1.0; stroke-dasharray: 2.0,2.0;" x1="32" x2="183.5" y1="362.0234" y2="362.0234"/><text fill="#000000" font-family="sans-serif" font-size="13" lengthAdjust="spacingAndGlyphs" textLength="76" x="101.5" y="356.9575">DID Resolve</text><polygon fill="#A80036" points="442,387.1563,452,391.1563,442,395.1563,446,391.1563" style="stroke: #A80036; stroke-width: 1.0;"/><line style="stroke: #A80036; stroke-width: 1.0;" x1="184.5" x2="448" y1="391.1563" y2="391.1563"/><text fill="#000000" font-family="sans-serif" font-size="13" lengthAdjust="spacingAndGlyphs" textLength="76" x="191.5" y="386.0903">{ Finished }</text><!--MD5=[31c6a934edade765024a38e406f53c7c]
@startuml srvr-vc
skinparam sequenceMessageAlign direction
skinparam ParticipantPadding 100

database IOTA order 1
participant Client order 2
participant Server order 3

Client -> Server : Client Hello \n+ server_cert_types*=(VC,X.509) \n+ did_methods*=(iota,btcr) \n+ key_share* \n+ sig_algs*
Server -> Client : Server Hello \n+ key_share*
Server -> Client : { Encrypted Extensions \n+ server_cert_types*=VC }
Server -> Client : { Certificate* }
Server -> Client : { Certificate Verify* }
Server -> Client : { Finished }
Client - -> IOTA : DID Resolve
Client -> Server : { Finished }
@enduml

PlantUML version 1.2020.02(Sun Mar 01 11:22:07 CET 2020)
(GPL source distribution)
Java Runtime: OpenJDK Runtime Environment
JVM: OpenJDK 64-Bit Server VM
Java Version: 11.0.20.1+1-post-Ubuntu-0ubuntu122.04
Operating System: Linux
Default Encoding: UTF-8
Language: en
Country: US
--></g></svg>