<?xml version="1.0" encoding="UTF-8" standalone="no"?><svg xmlns="http://www.w3.org/2000/svg" xmlns:xlink="http://www.w3.org/1999/xlink" contentScriptType="application/ecmascript" contentStyleType="text/css" height="600px" preserveAspectRatio="none" style="width:530px;height:600px;" version="1.1" viewBox="0 0 530 600" width="530px" zoomAndPan="magnify"><defs><filter height="300%" id="fhyx61ul8tplo" width="300%" x="-1" y="-1"><feGaussianBlur result="blurOut" stdDeviation="2.0"/><feColorMatrix in="blurOut" result="blurOut2" type="matrix" values="0 0 0 0 0 0 0 0 0 0 0 0 0 0 0 0 0 0 .4 0"/><feOffset dx="4.0" dy="4.0" in="blurOut2" result="blurOut3"/><feBlend in="SourceGraphic" in2="blurOut3" mode="normal"/></filter></defs><g><line style="stroke: #A80036; stroke-width: 1.0; stroke-dasharray: 5.0,5.0;" x1="27" x2="27" y1="65.2969" y2="526.8203"/><line style="stroke: #A80036; stroke-width: 1.0; stroke-dasharray: 5.0,5.0;" x1="184" x2="184" y1="65.2969" y2="526.8203"/><line style="stroke: #A80036; stroke-width: 1.0; stroke-dasharray: 5.0,5.0;" x1="492.5" x2="492.5" y1="65.2969" y2="526.8203"/><text fill="#000000" font-family="sans-serif" font-size="14" lengthAdjust="spacingAndGlyphs" textLength="32" x="8" y="61.9951">IOTA</text><path d="M9,13 C9,3 27,3 27,3 C27,3 45,3 45,13 L45,39 C45,49 27,49 27,49 C27,49 9,49 9,39 L9,13 " fill="#FEFECE" filter="url(#fhyx61ul8tplo)" style="stroke: #000000; stroke-width: 1.5;"/><path d="M9,13 C9,23 27,23 27,23 C27,23 45,23 45,13 " fill="none" style="stroke: #000000; stroke-width: 1.5;"/><text fill="#000000" font-family="sans-serif" font-size="14" lengthAdjust="spacingAndGlyphs" textLength="32" x="8" y="538.8154">IOTA</text><path d="M9,552.1172 C9,542.1172 27,542.1172 27,542.1172 C27,542.1172 45,542.1172 45,552.1172 L45,578.1172 C45,588.1172 27,588.1172 27,588.1172 C27,588.1172 9,588.1172 9,578.1172 L9,552.1172 " fill="#FEFECE" filter="url(#fhyx61ul8tplo)" style="stroke: #000000; stroke-width: 1.5;"/><path d="M9,552.1172 C9,562.1172 27,562.1172 27,562.1172 C27,562.1172 45,562.1172 45,552.1172 " fill="none" style="stroke: #000000; stroke-width: 1.5;"/><rect fill="#FEFECE" filter="url(#fhyx61ul8tplo)" height="30.2969" style="stroke: #A80036; stroke-width: 1.5;" width="53" x="156" y="30"/><text fill="#000000" font-family="sans-serif" font-size="14" lengthAdjust="spacingAndGlyphs" textLength="39" x="163" y="49.9951">Client</text><rect fill="#FEFECE" filter="url(#fhyx61ul8tplo)" height="30.2969" style="stroke: #A80036; stroke-width: 1.5;" width="53" x="156" y="525.8203"/><text fill="#000000" font-family="sans-serif" font-size="14" lengthAdjust="spacingAndGlyphs" textLength="39" x="163" y="545.8154">Client</text><rect fill="#FEFECE" filter="url(#fhyx61ul8tplo)" height="30.2969" style="stroke: #A80036; stroke-width: 1.5;" width="58" x="461.5" y="30"/><text fill="#000000" font-family="sans-serif" font-size="14" lengthAdjust="spacingAndGlyphs" textLength="44" x="468.5" y="49.9951">Server</text><rect fill="#FEFECE" filter="url(#fhyx61ul8tplo)" height="30.2969" style="stroke: #A80036; stroke-width: 1.5;" width="58" x="461.5" y="525.8203"/><text fill="#000000" font-family="sans-serif" font-size="14" lengthAdjust="spacingAndGlyphs" textLength="44" x="468.5" y="545.8154">Server</text><polygon fill="#A80036" points="480.5,168.0938,490.5,172.0938,480.5,176.0938,484.5,172.0938" style="stroke: #A80036; stroke-width: 1.0;"/><line style="stroke: #A80036; stroke-width: 1.0;" x1="184.5" x2="486.5" y1="172.0938" y2="172.0938"/><text fill="#000000" font-family="sans-serif" font-size="13" lengthAdjust="spacingAndGlyphs" textLength="72" x="191.5" y="91.3638">Client Hello</text><text fill="#000000" font-family="sans-serif" font-size="13" lengthAdjust="spacingAndGlyphs" textLength="280" x="191.5" y="106.4966">+ client_cert_types*=(X.509, RawPublicKey)</text><text fill="#000000" font-family="sans-serif" font-size="13" lengthAdjust="spacingAndGlyphs" textLength="219" x="191.5" y="121.6294">+ server_cert_types*=(VC, X.509)</text><text fill="#000000" font-family="sans-serif" font-size="13" lengthAdjust="spacingAndGlyphs" textLength="87" x="191.5" y="136.7622">+ key_share*</text><text fill="#000000" font-family="sans-serif" font-size="13" lengthAdjust="spacingAndGlyphs" textLength="73" x="191.5" y="151.895">+ sig_algs*</text><text fill="#000000" font-family="sans-serif" font-size="13" lengthAdjust="spacingAndGlyphs" textLength="150" x="191.5" y="167.0278">+ did_methods*=(iota)</text><polygon fill="#A80036" points="195.5,212.3594,185.5,216.3594,195.5,220.3594,191.5,216.3594" style="stroke: #A80036; stroke-width: 1.0;"/><line style="stroke: #A80036; stroke-width: 1.0;" x1="189.5" x2="491.5" y1="216.3594" y2="216.3594"/><text fill="#000000" font-family="sans-serif" font-size="13" lengthAdjust="spacingAndGlyphs" textLength="78" x="403.5" y="196.1606">Server Hello</text><text fill="#000000" font-family="sans-serif" font-size="13" lengthAdjust="spacingAndGlyphs" textLength="87" x="398.5" y="211.2935">+ key_share*</text><polygon fill="#A80036" points="195.5,271.7578,185.5,275.7578,195.5,279.7578,191.5,275.7578" style="stroke: #A80036; stroke-width: 1.0;"/><line style="stroke: #A80036; stroke-width: 1.0;" x1="189.5" x2="491.5" y1="275.7578" y2="275.7578"/><text fill="#000000" font-family="sans-serif" font-size="13" lengthAdjust="spacingAndGlyphs" textLength="149" x="332.5" y="240.4263">{ Encrypted Extensions</text><text fill="#000000" font-family="sans-serif" font-size="13" lengthAdjust="spacingAndGlyphs" textLength="177" x="304.5" y="255.5591">+ client_cert_types*=X.509</text><text fill="#000000" font-family="sans-serif" font-size="13" lengthAdjust="spacingAndGlyphs" textLength="177" x="308.5" y="270.6919">+ server_cert_types*=VC }</text><polygon fill="#A80036" points="195.5,300.8906,185.5,304.8906,195.5,308.8906,191.5,304.8906" style="stroke: #A80036; stroke-width: 1.0;"/><line style="stroke: #A80036; stroke-width: 1.0;" x1="189.5" x2="491.5" y1="304.8906" y2="304.8906"/><text fill="#000000" font-family="sans-serif" font-size="13" lengthAdjust="spacingAndGlyphs" textLength="149" x="336.5" y="299.8247">{ Certificate request* }</text><polygon fill="#A80036" points="195.5,330.0234,185.5,334.0234,195.5,338.0234,191.5,334.0234" style="stroke: #A80036; stroke-width: 1.0;"/><line style="stroke: #A80036; stroke-width: 1.0;" x1="189.5" x2="491.5" y1="334.0234" y2="334.0234"/><text fill="#000000" font-family="sans-serif" font-size="13" lengthAdjust="spacingAndGlyphs" textLength="96" x="389.5" y="328.9575">{ Certificate* }</text><polygon fill="#A80036" points="195.5,359.1563,185.5,363.1563,195.5,367.1563,191.5,363.1563" style="stroke: #A80036; stroke-width: 1.0;"/><line style="stroke: #A80036; stroke-width: 1.0;" x1="189.5" x2="491.5" y1="363.1563" y2="363.1563"/><text fill="#000000" font-family="sans-serif" font-size="13" lengthAdjust="spacingAndGlyphs" textLength="136" x="349.5" y="358.0903">{ Certificate Verify* }</text><polygon fill="#A80036" points="195.5,388.2891,185.5,392.2891,195.5,396.2891,191.5,392.2891" style="stroke: #A80036; stroke-width: 1.0;"/><line style="stroke: #A80036; stroke-width: 1.0;" x1="189.5" x2="491.5" y1="392.2891" y2="392.2891"/><text fill="#000000" font-family="sans-serif" font-size="13" lengthAdjust="spacingAndGlyphs" textLength="76" x="409.5" y="387.2231">{ Finished }</text><polygon fill="#A80036" points="38,417.4219,28,421.4219,38,425.4219,34,421.4219" style="stroke: #A80036; stroke-width: 1.0;"/><line style="stroke: #A80036; stroke-width: 1.0;" x1="32" x2="183.5" y1="421.4219" y2="421.4219"/><text fill="#000000" font-family="sans-serif" font-size="13" lengthAdjust="spacingAndGlyphs" textLength="76" x="101.5" y="416.356">DID Resolve</text><polygon fill="#A80036" points="480.5,446.5547,490.5,450.5547,480.5,454.5547,484.5,450.5547" style="stroke: #A80036; stroke-width: 1.0;"/><line style="stroke: #A80036; stroke-width: 1.0;" x1="184.5" x2="486.5" y1="450.5547" y2="450.5547"/><text fill="#000000" font-family="sans-serif" font-size="13" lengthAdjust="spacingAndGlyphs" textLength="96" x="191.5" y="445.4888">{ Certificate* }</text><polygon fill="#A80036" points="480.5,475.6875,490.5,479.6875,480.5,483.6875,484.5,479.6875" style="stroke: #A80036; stroke-width: 1.0;"/><line style="stroke: #A80036; stroke-width: 1.0;" x1="184.5" x2="486.5" y1="479.6875" y2="479.6875"/><text fill="#000000" font-family="sans-serif" font-size="13" lengthAdjust="spacingAndGlyphs" textLength="136" x="191.5" y="474.6216">{ Certificate Verify* }</text><polygon fill="#A80036" points="480.5,504.8203,490.5,508.8203,480.5,512.8203,484.5,508.8203" style="stroke: #A80036; stroke-width: 1.0;"/><line style="stroke: #A80036; stroke-width: 1.0;" x1="184.5" x2="486.5" y1="508.8203" y2="508.8203"/><text fill="#000000" font-family="sans-serif" font-size="13" lengthAdjust="spacingAndGlyphs" textLength="76" x="191.5" y="503.7544">{ Finished }</text><!--MD5=[6c9357d2e29e68a8c4826a1e5a1a70e5]
@startuml clnt-x509-srvr-vc
participant Client order 2
participant Server order 3
database IOTA order 1
skinparam sequenceMessageAlign direction
skinparam ParticipantPadding 100

Client -> Server : Client Hello \n+ client_cert_types*=(X.509, RawPublicKey) \n+ server_cert_types*=(VC, X.509) \n+ key_share* \n+ sig_algs* \n+ did_methods*=(iota)
Server -> Client : Server Hello \n+ key_share*
Server -> Client : { Encrypted Extensions \n+ client_cert_types*=X.509 \n+ server_cert_types*=VC }
Server -> Client : { Certificate request* }
Server -> Client : { Certificate* }
Server -> Client : { Certificate Verify* }
Server -> Client : { Finished }
Client -> IOTA : DID Resolve
Client -> Server : { Certificate* }
Client -> Server : { Certificate Verify* }
Client -> Server : { Finished }
@enduml

PlantUML version 1.2020.02(Sun Mar 01 11:22:07 CET 2020)
(GPL source distribution)
Java Runtime: OpenJDK Runtime Environment
JVM: OpenJDK 64-Bit Server VM
Java Version: 11.0.20.1+1-post-Ubuntu-0ubuntu122.04
Operating System: Linux
Default Encoding: UTF-8
Language: en
Country: US
--></g></svg>