<?xml version="1.0" encoding="UTF-8" standalone="no"?><svg xmlns="http://www.w3.org/2000/svg" xmlns:xlink="http://www.w3.org/1999/xlink" contentScriptType="application/ecmascript" contentStyleType="text/css" height="600px" preserveAspectRatio="none" style="width:640px;height:600px;" version="1.1" viewBox="0 0 640 600" width="640px" zoomAndPan="magnify"><defs><filter height="300%" id="fv411ra15kaje" width="300%" x="-1" y="-1"><feGaussianBlur result="blurOut" stdDeviation="2.0"/><feColorMatrix in="blurOut" result="blurOut2" type="matrix" values="0 0 0 0 0 0 0 0 0 0 0 0 0 0 0 0 0 0 .4 0"/><feOffset dx="4.0" dy="4.0" in="blurOut2" result="blurOut3"/><feBlend in="SourceGraphic" in2="blurOut3" mode="normal"/></filter></defs><g><line style="stroke: #A80036; stroke-width: 1.0; stroke-dasharray: 5.0,5.0;" x1="136" x2="136" y1="65.2969" y2="526.8203"/><line style="stroke: #A80036; stroke-width: 1.0; stroke-dasharray: 5.0,5.0;" x1="450.5" x2="450.5" y1="65.2969" y2="526.8203"/><line style="stroke: #A80036; stroke-width: 1.0; stroke-dasharray: 5.0,5.0;" x1="610.5" x2="610.5" y1="65.2969" y2="526.8203"/><rect fill="#FEFECE" filter="url(#fv411ra15kaje)" height="30.2969" style="stroke: #A80036; stroke-width: 1.5;" width="53" x="108" y="30"/><text fill="#000000" font-family="sans-serif" font-size="14" lengthAdjust="spacingAndGlyphs" textLength="39" x="115" y="49.9951">Client</text><rect fill="#FEFECE" filter="url(#fv411ra15kaje)" height="30.2969" style="stroke: #A80036; stroke-width: 1.5;" width="53" x="108" y="525.8203"/><text fill="#000000" font-family="sans-serif" font-size="14" lengthAdjust="spacingAndGlyphs" textLength="39" x="115" y="545.8154">Client</text><rect fill="#FEFECE" filter="url(#fv411ra15kaje)" height="30.2969" style="stroke: #A80036; stroke-width: 1.5;" width="58" x="419.5" y="30"/><text fill="#000000" font-family="sans-serif" font-size="14" lengthAdjust="spacingAndGlyphs" textLength="44" x="426.5" y="49.9951">Server</text><rect fill="#FEFECE" filter="url(#fv411ra15kaje)" height="30.2969" style="stroke: #A80036; stroke-width: 1.5;" width="58" x="419.5" y="525.8203"/><text fill="#000000" font-family="sans-serif" font-size="14" lengthAdjust="spacingAndGlyphs" textLength="44" x="426.5" y="545.8154">Server</text><text fill="#000000" font-family="sans-serif" font-size="14" lengthAdjust="spacingAndGlyphs" textLength="32" x="591.5" y="61.9951">IOTA</text><path d="M592.5,13 C592.5,3 610.5,3 610.5,3 C610.5,3 628.5,3 628.5,13 L628.5,39 C628.5,49 610.5,49 610.5,49 C610.5,49 592.5,49 592.5,39 L592.5,13 " fill="#FEFECE" filter="url(#fv411ra15kaje)" style="stroke: #000000; stroke-width: 1.5;"/><path d="M592.5,13 C592.5,23 610.5,23 610.5,23 C610.5,23 628.5,23 628.5,13 " fill="none" style="stroke: #000000; stroke-width: 1.5;"/><text fill="#000000" font-family="sans-serif" font-size="14" lengthAdjust="spacingAndGlyphs" textLength="32" x="591.5" y="538.8154">IOTA</text><path d="M592.5,552.1172 C592.5,542.1172 610.5,542.1172 610.5,542.1172 C610.5,542.1172 628.5,542.1172 628.5,552.1172 L628.5,578.1172 C628.5,588.1172 610.5,588.1172 610.5,588.1172 C610.5,588.1172 592.5,588.1172 592.5,578.1172 L592.5,552.1172 " fill="#FEFECE" filter="url(#fv411ra15kaje)" style="stroke: #000000; stroke-width: 1.5;"/><path d="M592.5,552.1172 C592.5,562.1172 610.5,562.1172 610.5,562.1172 C610.5,562.1172 628.5,562.1172 628.5,552.1172 " fill="none" style="stroke: #000000; stroke-width: 1.5;"/><polygon fill="#A80036" points="438.5,152.9609,448.5,156.9609,438.5,160.9609,442.5,156.9609" style="stroke: #A80036; stroke-width: 1.0;"/><line style="stroke: #A80036; stroke-width: 1.0;" x1="136.5" x2="444.5" y1="156.9609" y2="156.9609"/><text fill="#000000" font-family="sans-serif" font-size="13" lengthAdjust="spacingAndGlyphs" textLength="72" x="143.5" y="91.3638">Client Hello</text><text fill="#000000" font-family="sans-serif" font-size="13" lengthAdjust="spacingAndGlyphs" textLength="213" x="143.5" y="106.4966">+ client_cert_types*=(X.509, VC)</text><text fill="#000000" font-family="sans-serif" font-size="13" lengthAdjust="spacingAndGlyphs" textLength="286" x="143.5" y="121.6294">+ server_cert_types*=(X.509, RawPublicKey)</text><text fill="#000000" font-family="sans-serif" font-size="13" lengthAdjust="spacingAndGlyphs" textLength="87" x="143.5" y="136.7622">+ key_share*</text><text fill="#000000" font-family="sans-serif" font-size="13" lengthAdjust="spacingAndGlyphs" textLength="73" x="143.5" y="151.895">+ sig_algs*</text><polygon fill="#A80036" points="147.5,197.2266,137.5,201.2266,147.5,205.2266,143.5,201.2266" style="stroke: #A80036; stroke-width: 1.0;"/><line style="stroke: #A80036; stroke-width: 1.0;" x1="141.5" x2="449.5" y1="201.2266" y2="201.2266"/><text fill="#000000" font-family="sans-serif" font-size="13" lengthAdjust="spacingAndGlyphs" textLength="78" x="361.5" y="181.0278">Server Hello</text><text fill="#000000" font-family="sans-serif" font-size="13" lengthAdjust="spacingAndGlyphs" textLength="87" x="356.5" y="196.1606">+ key_share*</text><polygon fill="#A80036" points="147.5,256.625,137.5,260.625,147.5,264.625,143.5,260.625" style="stroke: #A80036; stroke-width: 1.0;"/><line style="stroke: #A80036; stroke-width: 1.0;" x1="141.5" x2="449.5" y1="260.625" y2="260.625"/><text fill="#000000" font-family="sans-serif" font-size="13" lengthAdjust="spacingAndGlyphs" textLength="149" x="290.5" y="225.2935">{ Encrypted Extensions</text><text fill="#000000" font-family="sans-serif" font-size="13" lengthAdjust="spacingAndGlyphs" textLength="159" x="280.5" y="240.4263">+ client_cert_types*=VC</text><text fill="#000000" font-family="sans-serif" font-size="13" lengthAdjust="spacingAndGlyphs" textLength="195" x="248.5" y="255.5591">+ server_cert_types*=X.509 }</text><polygon fill="#A80036" points="147.5,300.8906,137.5,304.8906,147.5,308.8906,143.5,304.8906" style="stroke: #A80036; stroke-width: 1.0;"/><line style="stroke: #A80036; stroke-width: 1.0;" x1="141.5" x2="449.5" y1="304.8906" y2="304.8906"/><text fill="#000000" font-family="sans-serif" font-size="13" lengthAdjust="spacingAndGlyphs" textLength="137" x="302.5" y="284.6919">{ Certificate request*</text><text fill="#000000" font-family="sans-serif" font-size="13" lengthAdjust="spacingAndGlyphs" textLength="187" x="256.5" y="299.8247">+ did_methods*=(iota,btcr)}</text><polygon fill="#A80036" points="147.5,330.0234,137.5,334.0234,147.5,338.0234,143.5,334.0234" style="stroke: #A80036; stroke-width: 1.0;"/><line style="stroke: #A80036; stroke-width: 1.0;" x1="141.5" x2="449.5" y1="334.0234" y2="334.0234"/><text fill="#000000" font-family="sans-serif" font-size="13" lengthAdjust="spacingAndGlyphs" textLength="96" x="347.5" y="328.9575">{ Certificate* }</text><polygon fill="#A80036" points="147.5,359.1563,137.5,363.1563,147.5,367.1563,143.5,363.1563" style="stroke: #A80036; stroke-width: 1.0;"/><line style="stroke: #A80036; stroke-width: 1.0;" x1="141.5" x2="449.5" y1="363.1563" y2="363.1563"/><text fill="#000000" font-family="sans-serif" font-size="13" lengthAdjust="spacingAndGlyphs" textLength="136" x="307.5" y="358.0903">{ Certificate Verify* }</text><polygon fill="#A80036" points="147.5,388.2891,137.5,392.2891,147.5,396.2891,143.5,392.2891" style="stroke: #A80036; stroke-width: 1.0;"/><line style="stroke: #A80036; stroke-width: 1.0;" x1="141.5" x2="449.5" y1="392.2891" y2="392.2891"/><text fill="#000000" font-family="sans-serif" font-size="13" lengthAdjust="spacingAndGlyphs" textLength="76" x="367.5" y="387.2231">{ Finished }</text><polygon fill="#A80036" points="438.5,417.4219,448.5,421.4219,438.5,425.4219,442.5,421.4219" style="stroke: #A80036; stroke-width: 1.0;"/><line style="stroke: #A80036; stroke-width: 1.0;" x1="136.5" x2="444.5" y1="421.4219" y2="421.4219"/><text fill="#000000" font-family="sans-serif" font-size="13" lengthAdjust="spacingAndGlyphs" textLength="96" x="143.5" y="416.356">{ Certificate* }</text><polygon fill="#A80036" points="438.5,446.5547,448.5,450.5547,438.5,454.5547,442.5,450.5547" style="stroke: #A80036; stroke-width: 1.0;"/><line style="stroke: #A80036; stroke-width: 1.0;" x1="136.5" x2="444.5" y1="450.5547" y2="450.5547"/><text fill="#000000" font-family="sans-serif" font-size="13" lengthAdjust="spacingAndGlyphs" textLength="136" x="143.5" y="445.4888">{ Certificate Verify* }</text><polygon fill="#A80036" points="438.5,475.6875,448.5,479.6875,438.5,483.6875,442.5,479.6875" style="stroke: #A80036; stroke-width: 1.0;"/><line style="stroke: #A80036; stroke-width: 1.0;" x1="136.5" x2="444.5" y1="479.6875" y2="479.6875"/><text fill="#000000" font-family="sans-serif" font-size="13" lengthAdjust="spacingAndGlyphs" textLength="76" x="143.5" y="474.6216">{ Finished }</text><polygon fill="#A80036" points="598.5,504.8203,608.5,508.8203,598.5,512.8203,602.5,508.8203" style="stroke: #A80036; stroke-width: 1.0;"/><line style="stroke: #A80036; stroke-width: 1.0;" x1="450.5" x2="604.5" y1="508.8203" y2="508.8203"/><text fill="#000000" font-family="sans-serif" font-size="13" lengthAdjust="spacingAndGlyphs" textLength="76" x="457.5" y="503.7544">DID Resolve</text><!--MD5=[924dedf9dfbf65b0270582b364482184]
@startuml clnt-vc-srvr-x509
participant Client order 2
participant Server order 3
database IOTA order 4
skinparam sequenceMessageAlign direction
skinparam ParticipantPadding 100

Client -> Server : Client Hello \n+ client_cert_types*=(X.509, VC) \n+ server_cert_types*=(X.509, RawPublicKey) \n+ key_share* \n+ sig_algs*
Server -> Client : Server Hello \n+ key_share*
Server -> Client : { Encrypted Extensions \n+ client_cert_types*=VC \n+ server_cert_types*=X.509 }
Server -> Client : { Certificate request* \n + did_methods*=(iota,btcr)}
Server -> Client : { Certificate* }
Server -> Client : { Certificate Verify* }
Server -> Client : { Finished }
Client -> Server : { Certificate* }
Client -> Server : { Certificate Verify* }
Client -> Server : { Finished }
Server -> IOTA : DID Resolve
@enduml

PlantUML version 1.2020.02(Sun Mar 01 11:22:07 CET 2020)
(GPL source distribution)
Java Runtime: OpenJDK Runtime Environment
JVM: OpenJDK 64-Bit Server VM
Java Version: 11.0.20.1+1-post-Ubuntu-0ubuntu122.04
Operating System: Linux
Default Encoding: UTF-8
Language: en
Country: US
--></g></svg>