<?xml version="1.0" encoding="UTF-8" standalone="no"?><svg xmlns="http://www.w3.org/2000/svg" xmlns:xlink="http://www.w3.org/1999/xlink" contentScriptType="application/ecmascript" contentStyleType="text/css" height="644px" preserveAspectRatio="none" style="width:641px;height:644px;" version="1.1" viewBox="0 0 641 644" width="641px" zoomAndPan="magnify"><defs><filter height="300%" id="f1pwr6zc0iyx2y" width="300%" x="-1" y="-1"><feGaussianBlur result="blurOut" stdDeviation="2.0"/><feColorMatrix in="blurOut" result="blurOut2" type="matrix" values="0 0 0 0 0 0 0 0 0 0 0 0 0 0 0 0 0 0 .4 0"/><feOffset dx="4.0" dy="4.0" in="blurOut2" result="blurOut3"/><feBlend in="SourceGraphic" in2="blurOut3" mode="normal"/></filter></defs><g><line style="stroke: #A80036; stroke-width: 1.0; stroke-dasharray: 5.0,5.0;" x1="26" x2="26" y1="65.2969" y2="571.0859"/><line style="stroke: #A80036; stroke-width: 1.0; stroke-dasharray: 5.0,5.0;" x1="182" x2="182" y1="65.2969" y2="571.0859"/><line style="stroke: #A80036; stroke-width: 1.0; stroke-dasharray: 5.0,5.0;" x1="452" x2="452" y1="65.2969" y2="571.0859"/><line style="stroke: #A80036; stroke-width: 1.0; stroke-dasharray: 5.0,5.0;" x1="611" x2="611" y1="65.2969" y2="571.0859"/><text fill="#000000" font-family="sans-serif" font-size="14" lengthAdjust="spacingAndGlyphs" textLength="27" x="9.5" y="61.9951">DLT</text><path d="M8,13 C8,3 26,3 26,3 C26,3 44,3 44,13 L44,39 C44,49 26,49 26,49 C26,49 8,49 8,39 L8,13 " fill="#FEFECE" filter="url(#f1pwr6zc0iyx2y)" style="stroke: #000000; stroke-width: 1.5;"/><path d="M8,13 C8,23 26,23 26,23 C26,23 44,23 44,13 " fill="none" style="stroke: #000000; stroke-width: 1.5;"/><text fill="#000000" font-family="sans-serif" font-size="14" lengthAdjust="spacingAndGlyphs" textLength="27" x="9.5" y="583.0811">DLT</text><path d="M8,596.3828 C8,586.3828 26,586.3828 26,586.3828 C26,586.3828 44,586.3828 44,596.3828 L44,622.3828 C44,632.3828 26,632.3828 26,632.3828 C26,632.3828 8,632.3828 8,622.3828 L8,596.3828 " fill="#FEFECE" filter="url(#f1pwr6zc0iyx2y)" style="stroke: #000000; stroke-width: 1.5;"/><path d="M8,596.3828 C8,606.3828 26,606.3828 26,606.3828 C26,606.3828 44,606.3828 44,596.3828 " fill="none" style="stroke: #000000; stroke-width: 1.5;"/><rect fill="#FEFECE" filter="url(#f1pwr6zc0iyx2y)" height="30.2969" style="stroke: #A80036; stroke-width: 1.5;" width="53" x="154" y="30"/><text fill="#000000" font-family="sans-serif" font-size="14" lengthAdjust="spacingAndGlyphs" textLength="39" x="161" y="49.9951">Client</text><rect fill="#FEFECE" filter="url(#f1pwr6zc0iyx2y)" height="30.2969" style="stroke: #A80036; stroke-width: 1.5;" width="53" x="154" y="570.0859"/><text fill="#000000" font-family="sans-serif" font-size="14" lengthAdjust="spacingAndGlyphs" textLength="39" x="161" y="590.0811">Client</text><rect fill="#FEFECE" filter="url(#f1pwr6zc0iyx2y)" height="30.2969" style="stroke: #A80036; stroke-width: 1.5;" width="58" x="421" y="30"/><text fill="#000000" font-family="sans-serif" font-size="14" lengthAdjust="spacingAndGlyphs" textLength="44" x="428" y="49.9951">Server</text><rect fill="#FEFECE" filter="url(#f1pwr6zc0iyx2y)" height="30.2969" style="stroke: #A80036; stroke-width: 1.5;" width="58" x="421" y="570.0859"/><text fill="#000000" font-family="sans-serif" font-size="14" lengthAdjust="spacingAndGlyphs" textLength="44" x="428" y="590.0811">Server</text><text fill="#000000" font-family="sans-serif" font-size="14" lengthAdjust="spacingAndGlyphs" textLength="27" x="594.5" y="61.9951">DLT</text><path d="M593,13 C593,3 611,3 611,3 C611,3 629,3 629,13 L629,39 C629,49 611,49 611,49 C611,49 593,49 593,39 L593,13 " fill="#FEFECE" filter="url(#f1pwr6zc0iyx2y)" style="stroke: #000000; stroke-width: 1.5;"/><path d="M593,13 C593,23 611,23 611,23 C611,23 629,23 629,13 " fill="none" style="stroke: #000000; stroke-width: 1.5;"/><text fill="#000000" font-family="sans-serif" font-size="14" lengthAdjust="spacingAndGlyphs" textLength="27" x="594.5" y="583.0811">DLT</text><path d="M593,596.3828 C593,586.3828 611,586.3828 611,586.3828 C611,586.3828 629,586.3828 629,596.3828 L629,622.3828 C629,632.3828 611,632.3828 611,632.3828 C611,632.3828 593,632.3828 593,622.3828 L593,596.3828 " fill="#FEFECE" filter="url(#f1pwr6zc0iyx2y)" style="stroke: #000000; stroke-width: 1.5;"/><path d="M593,596.3828 C593,606.3828 611,606.3828 611,606.3828 C611,606.3828 629,606.3828 629,596.3828 " fill="none" style="stroke: #000000; stroke-width: 1.5;"/><polygon fill="#A80036" points="440,168.0938,450,172.0938,440,176.0938,444,172.0938" style="stroke: #A80036; stroke-width: 1.0;"/><line style="stroke: #A80036; stroke-width: 1.0;" x1="182.5" x2="446" y1="172.0938" y2="172.0938"/><text fill="#000000" font-family="sans-serif" font-size="13" lengthAdjust="spacingAndGlyphs" textLength="72" x="189.5" y="91.3638">Client Hello</text><text fill="#000000" font-family="sans-serif" font-size="13" lengthAdjust="spacingAndGlyphs" textLength="130" x="189.5" y="106.4966">+ client_cert_types*</text><text fill="#000000" font-family="sans-serif" font-size="13" lengthAdjust="spacingAndGlyphs" textLength="136" x="189.5" y="121.6294">+ server_cert_types*</text><text fill="#000000" font-family="sans-serif" font-size="13" lengthAdjust="spacingAndGlyphs" textLength="87" x="189.5" y="136.7622">+ key_share*</text><text fill="#000000" font-family="sans-serif" font-size="13" lengthAdjust="spacingAndGlyphs" textLength="73" x="189.5" y="151.895">+ sig_algs*</text><text fill="#000000" font-family="sans-serif" font-size="13" lengthAdjust="spacingAndGlyphs" textLength="98" x="189.5" y="167.0278">+ did_methods</text><polygon fill="#A80036" points="193.5,212.3594,183.5,216.3594,193.5,220.3594,189.5,216.3594" style="stroke: #A80036; stroke-width: 1.0;"/><line style="stroke: #A80036; stroke-width: 1.0;" x1="187.5" x2="451" y1="216.3594" y2="216.3594"/><text fill="#000000" font-family="sans-serif" font-size="13" lengthAdjust="spacingAndGlyphs" textLength="78" x="363" y="196.1606">Server Hello</text><text fill="#000000" font-family="sans-serif" font-size="13" lengthAdjust="spacingAndGlyphs" textLength="87" x="358" y="211.2935">+ key_share*</text><polygon fill="#A80036" points="193.5,271.7578,183.5,275.7578,193.5,279.7578,189.5,275.7578" style="stroke: #A80036; stroke-width: 1.0;"/><line style="stroke: #A80036; stroke-width: 1.0;" x1="187.5" x2="451" y1="275.7578" y2="275.7578"/><text fill="#000000" font-family="sans-serif" font-size="13" lengthAdjust="spacingAndGlyphs" textLength="149" x="292" y="240.4263">{ Encrypted Extensions</text><text fill="#000000" font-family="sans-serif" font-size="13" lengthAdjust="spacingAndGlyphs" textLength="130" x="311" y="255.5591">+ client_cert_types*</text><text fill="#000000" font-family="sans-serif" font-size="13" lengthAdjust="spacingAndGlyphs" textLength="148" x="297" y="270.6919">+ server_cert_types* }</text><polygon fill="#A80036" points="193.5,316.0234,183.5,320.0234,193.5,324.0234,189.5,320.0234" style="stroke: #A80036; stroke-width: 1.0;"/><line style="stroke: #A80036; stroke-width: 1.0;" x1="187.5" x2="451" y1="320.0234" y2="320.0234"/><text fill="#000000" font-family="sans-serif" font-size="13" lengthAdjust="spacingAndGlyphs" textLength="137" x="304" y="299.8247">{ Certificate request*</text><text fill="#000000" font-family="sans-serif" font-size="13" lengthAdjust="spacingAndGlyphs" textLength="117" x="328" y="314.9575">+ did_methods* }</text><polygon fill="#A80036" points="193.5,345.1563,183.5,349.1563,193.5,353.1563,189.5,349.1563" style="stroke: #A80036; stroke-width: 1.0;"/><line style="stroke: #A80036; stroke-width: 1.0;" x1="187.5" x2="451" y1="349.1563" y2="349.1563"/><text fill="#000000" font-family="sans-serif" font-size="13" lengthAdjust="spacingAndGlyphs" textLength="96" x="349" y="344.0903">{ Certificate* }</text><polygon fill="#A80036" points="193.5,374.2891,183.5,378.2891,193.5,382.2891,189.5,378.2891" style="stroke: #A80036; stroke-width: 1.0;"/><line style="stroke: #A80036; stroke-width: 1.0;" x1="187.5" x2="451" y1="378.2891" y2="378.2891"/><text fill="#000000" font-family="sans-serif" font-size="13" lengthAdjust="spacingAndGlyphs" textLength="136" x="309" y="373.2231">{ Certificate Verify* }</text><polygon fill="#A80036" points="193.5,403.4219,183.5,407.4219,193.5,411.4219,189.5,407.4219" style="stroke: #A80036; stroke-width: 1.0;"/><line style="stroke: #A80036; stroke-width: 1.0;" x1="187.5" x2="451" y1="407.4219" y2="407.4219"/><text fill="#000000" font-family="sans-serif" font-size="13" lengthAdjust="spacingAndGlyphs" textLength="76" x="369" y="402.356">{ Finished }</text><polygon fill="#A80036" points="37,432.5547,27,436.5547,37,440.5547,33,436.5547" style="stroke: #A80036; stroke-width: 1.0;"/><line style="stroke: #A80036; stroke-width: 1.0;" x1="31" x2="181.5" y1="436.5547" y2="436.5547"/><text fill="#000000" font-family="sans-serif" font-size="13" lengthAdjust="spacingAndGlyphs" textLength="76" x="99.5" y="431.4888">DID Resolve</text><polygon fill="#A80036" points="440,461.6875,450,465.6875,440,469.6875,444,465.6875" style="stroke: #A80036; stroke-width: 1.0;"/><line style="stroke: #A80036; stroke-width: 1.0;" x1="182.5" x2="446" y1="465.6875" y2="465.6875"/><text fill="#000000" font-family="sans-serif" font-size="13" lengthAdjust="spacingAndGlyphs" textLength="96" x="189.5" y="460.6216">{ Certificate* }</text><polygon fill="#A80036" points="440,490.8203,450,494.8203,440,498.8203,444,494.8203" style="stroke: #A80036; stroke-width: 1.0;"/><line style="stroke: #A80036; stroke-width: 1.0;" x1="182.5" x2="446" y1="494.8203" y2="494.8203"/><text fill="#000000" font-family="sans-serif" font-size="13" lengthAdjust="spacingAndGlyphs" textLength="136" x="189.5" y="489.7544">{ Certificate Verify* }</text><polygon fill="#A80036" points="440,519.9531,450,523.9531,440,527.9531,444,523.9531" style="stroke: #A80036; stroke-width: 1.0;"/><line style="stroke: #A80036; stroke-width: 1.0;" x1="182.5" x2="446" y1="523.9531" y2="523.9531"/><text fill="#000000" font-family="sans-serif" font-size="13" lengthAdjust="spacingAndGlyphs" textLength="76" x="189.5" y="518.8872">{ Finished }</text><polygon fill="#A80036" points="599,549.0859,609,553.0859,599,557.0859,603,553.0859" style="stroke: #A80036; stroke-width: 1.0;"/><line style="stroke: #A80036; stroke-width: 1.0;" x1="452" x2="605" y1="553.0859" y2="553.0859"/><text fill="#000000" font-family="sans-serif" font-size="13" lengthAdjust="spacingAndGlyphs" textLength="76" x="459" y="548.02">DID Resolve</text><!--MD5=[422a00452dcc2ae861886192cc6feaa8]
@startuml full-hs
database DLT as dlt1 order 1
database DLT as dlt2 order 4
participant Client order 2
participant Server order 3
skinparam sequenceMessageAlign direction
skinparam ParticipantPadding 100
Client -> Server : Client Hello \n+ client_cert_types* \n+ server_cert_types* \n+ key_share* \n+ sig_algs* \n+ did_methods
Server -> Client : Server Hello \n+ key_share*
Server -> Client : { Encrypted Extensions \n+ client_cert_types* \n+ server_cert_types* }
Server -> Client : { Certificate request* \n+ did_methods* }
Server -> Client : { Certificate* }
Server -> Client : { Certificate Verify* }
Server -> Client : { Finished }
Client -> dlt1 : DID Resolve
Client -> Server : { Certificate* }
Client -> Server : { Certificate Verify* }
Client -> Server : { Finished }
Server -> dlt2 : DID Resolve
@enduml

PlantUML version 1.2020.02(Sun Mar 01 11:22:07 CET 2020)
(GPL source distribution)
Java Runtime: OpenJDK Runtime Environment
JVM: OpenJDK 64-Bit Server VM
Java Version: 11.0.20.1+1-post-Ubuntu-0ubuntu122.04
Operating System: Linux
Default Encoding: UTF-8
Language: en
Country: US
--></g></svg>