<?xml version="1.0" encoding="UTF-8" standalone="no"?><svg xmlns="http://www.w3.org/2000/svg" xmlns:xlink="http://www.w3.org/1999/xlink" contentScriptType="application/ecmascript" contentStyleType="text/css" height="644px" preserveAspectRatio="none" style="width:644px;height:644px;" version="1.1" viewBox="0 0 644 644" width="644px" zoomAndPan="magnify"><defs><filter height="300%" id="fgw3fxyylxbuu" width="300%" x="-1" y="-1"><feGaussianBlur result="blurOut" stdDeviation="2.0"/><feColorMatrix in="blurOut" result="blurOut2" type="matrix" values="0 0 0 0 0 0 0 0 0 0 0 0 0 0 0 0 0 0 .4 0"/><feOffset dx="4.0" dy="4.0" in="blurOut2" result="blurOut3"/><feBlend in="SourceGraphic" in2="blurOut3" mode="normal"/></filter></defs><g><line style="stroke: #A80036; stroke-width: 1.0; stroke-dasharray: 5.0,5.0;" x1="27" x2="27" y1="65.2969" y2="571.0859"/><line style="stroke: #A80036; stroke-width: 1.0; stroke-dasharray: 5.0,5.0;" x1="184" x2="184" y1="65.2969" y2="571.0859"/><line style="stroke: #A80036; stroke-width: 1.0; stroke-dasharray: 5.0,5.0;" x1="454" x2="454" y1="65.2969" y2="571.0859"/><line style="stroke: #A80036; stroke-width: 1.0; stroke-dasharray: 5.0,5.0;" x1="614" x2="614" y1="65.2969" y2="571.0859"/><text fill="#000000" font-family="sans-serif" font-size="14" lengthAdjust="spacingAndGlyphs" textLength="32" x="8" y="61.9951">IOTA</text><path d="M9,13 C9,3 27,3 27,3 C27,3 45,3 45,13 L45,39 C45,49 27,49 27,49 C27,49 9,49 9,39 L9,13 " fill="#FEFECE" filter="url(#fgw3fxyylxbuu)" style="stroke: #000000; stroke-width: 1.5;"/><path d="M9,13 C9,23 27,23 27,23 C27,23 45,23 45,13 " fill="none" style="stroke: #000000; stroke-width: 1.5;"/><text fill="#000000" font-family="sans-serif" font-size="14" lengthAdjust="spacingAndGlyphs" textLength="32" x="8" y="583.0811">IOTA</text><path d="M9,596.3828 C9,586.3828 27,586.3828 27,586.3828 C27,586.3828 45,586.3828 45,596.3828 L45,622.3828 C45,632.3828 27,632.3828 27,632.3828 C27,632.3828 9,632.3828 9,622.3828 L9,596.3828 " fill="#FEFECE" filter="url(#fgw3fxyylxbuu)" style="stroke: #000000; stroke-width: 1.5;"/><path d="M9,596.3828 C9,606.3828 27,606.3828 27,606.3828 C27,606.3828 45,606.3828 45,596.3828 " fill="none" style="stroke: #000000; stroke-width: 1.5;"/><rect fill="#FEFECE" filter="url(#fgw3fxyylxbuu)" height="30.2969" style="stroke: #A80036; stroke-width: 1.5;" width="53" x="156" y="30"/><text fill="#000000" font-family="sans-serif" font-size="14" lengthAdjust="spacingAndGlyphs" textLength="39" x="163" y="49.9951">Client</text><rect fill="#FEFECE" filter="url(#fgw3fxyylxbuu)" height="30.2969" style="stroke: #A80036; stroke-width: 1.5;" width="53" x="156" y="570.0859"/><text fill="#000000" font-family="sans-serif" font-size="14" lengthAdjust="spacingAndGlyphs" textLength="39" x="163" y="590.0811">Client</text><rect fill="#FEFECE" filter="url(#fgw3fxyylxbuu)" height="30.2969" style="stroke: #A80036; stroke-width: 1.5;" width="58" x="423" y="30"/><text fill="#000000" font-family="sans-serif" font-size="14" lengthAdjust="spacingAndGlyphs" textLength="44" x="430" y="49.9951">Server</text><rect fill="#FEFECE" filter="url(#fgw3fxyylxbuu)" height="30.2969" style="stroke: #A80036; stroke-width: 1.5;" width="58" x="423" y="570.0859"/><text fill="#000000" font-family="sans-serif" font-size="14" lengthAdjust="spacingAndGlyphs" textLength="44" x="430" y="590.0811">Server</text><text fill="#000000" font-family="sans-serif" font-size="14" lengthAdjust="spacingAndGlyphs" textLength="32" x="595" y="61.9951">IOTA</text><path d="M596,13 C596,3 614,3 614,3 C614,3 632,3 632,13 L632,39 C632,49 614,49 614,49 C614,49 596,49 596,39 L596,13 " fill="#FEFECE" filter="url(#fgw3fxyylxbuu)" style="stroke: #000000; stroke-width: 1.5;"/><path d="M596,13 C596,23 614,23 614,23 C614,23 632,23 632,13 " fill="none" style="stroke: #000000; stroke-width: 1.5;"/><text fill="#000000" font-family="sans-serif" font-size="14" lengthAdjust="spacingAndGlyphs" textLength="32" x="595" y="583.0811">IOTA</text><path d="M596,596.3828 C596,586.3828 614,586.3828 614,586.3828 C614,586.3828 632,586.3828 632,596.3828 L632,622.3828 C632,632.3828 614,632.3828 614,632.3828 C614,632.3828 596,632.3828 596,622.3828 L596,596.3828 " fill="#FEFECE" filter="url(#fgw3fxyylxbuu)" style="stroke: #000000; stroke-width: 1.5;"/><path d="M596,596.3828 C596,606.3828 614,606.3828 614,606.3828 C614,606.3828 632,606.3828 632,596.3828 " fill="none" style="stroke: #000000; stroke-width: 1.5;"/><polygon fill="#A80036" points="442,168.0938,452,172.0938,442,176.0938,446,172.0938" style="stroke: #A80036; stroke-width: 1.0;"/><line style="stroke: #A80036; stroke-width: 1.0;" x1="184.5" x2="448" y1="172.0938" y2="172.0938"/><text fill="#000000" font-family="sans-serif" font-size="13" lengthAdjust="spacingAndGlyphs" textLength="72" x="191.5" y="91.3638">Client Hello</text><text fill="#000000" font-family="sans-serif" font-size="13" lengthAdjust="spacingAndGlyphs" textLength="130" x="191.5" y="106.4966">+ client_cert_types*</text><text fill="#000000" font-family="sans-serif" font-size="13" lengthAdjust="spacingAndGlyphs" textLength="136" x="191.5" y="121.6294">+ server_cert_types*</text><text fill="#000000" font-family="sans-serif" font-size="13" lengthAdjust="spacingAndGlyphs" textLength="87" x="191.5" y="136.7622">+ key_share*</text><text fill="#000000" font-family="sans-serif" font-size="13" lengthAdjust="spacingAndGlyphs" textLength="73" x="191.5" y="151.895">+ sig_algs*</text><text fill="#000000" font-family="sans-serif" font-size="13" lengthAdjust="spacingAndGlyphs" textLength="98" x="191.5" y="167.0278">+ did_methods</text><polygon fill="#A80036" points="195.5,212.3594,185.5,216.3594,195.5,220.3594,191.5,216.3594" style="stroke: #A80036; stroke-width: 1.0;"/><line style="stroke: #A80036; stroke-width: 1.0;" x1="189.5" x2="453" y1="216.3594" y2="216.3594"/><text fill="#000000" font-family="sans-serif" font-size="13" lengthAdjust="spacingAndGlyphs" textLength="78" x="365" y="196.1606">Server Hello</text><text fill="#000000" font-family="sans-serif" font-size="13" lengthAdjust="spacingAndGlyphs" textLength="87" x="360" y="211.2935">+ key_share*</text><polygon fill="#A80036" points="195.5,271.7578,185.5,275.7578,195.5,279.7578,191.5,275.7578" style="stroke: #A80036; stroke-width: 1.0;"/><line style="stroke: #A80036; stroke-width: 1.0;" x1="189.5" x2="453" y1="275.7578" y2="275.7578"/><text fill="#000000" font-family="sans-serif" font-size="13" lengthAdjust="spacingAndGlyphs" textLength="149" x="294" y="240.4263">{ Encrypted Extensions</text><text fill="#000000" font-family="sans-serif" font-size="13" lengthAdjust="spacingAndGlyphs" textLength="130" x="313" y="255.5591">+ client_cert_types*</text><text fill="#000000" font-family="sans-serif" font-size="13" lengthAdjust="spacingAndGlyphs" textLength="148" x="299" y="270.6919">+ server_cert_types* }</text><polygon fill="#A80036" points="195.5,316.0234,185.5,320.0234,195.5,324.0234,191.5,320.0234" style="stroke: #A80036; stroke-width: 1.0;"/><line style="stroke: #A80036; stroke-width: 1.0;" x1="189.5" x2="453" y1="320.0234" y2="320.0234"/><text fill="#000000" font-family="sans-serif" font-size="13" lengthAdjust="spacingAndGlyphs" textLength="137" x="306" y="299.8247">{ Certificate request*</text><text fill="#000000" font-family="sans-serif" font-size="13" lengthAdjust="spacingAndGlyphs" textLength="117" x="330" y="314.9575">+ did_methods* }</text><polygon fill="#A80036" points="195.5,345.1563,185.5,349.1563,195.5,353.1563,191.5,349.1563" style="stroke: #A80036; stroke-width: 1.0;"/><line style="stroke: #A80036; stroke-width: 1.0;" x1="189.5" x2="453" y1="349.1563" y2="349.1563"/><text fill="#000000" font-family="sans-serif" font-size="13" lengthAdjust="spacingAndGlyphs" textLength="96" x="351" y="344.0903">{ Certificate* }</text><polygon fill="#A80036" points="195.5,374.2891,185.5,378.2891,195.5,382.2891,191.5,378.2891" style="stroke: #A80036; stroke-width: 1.0;"/><line style="stroke: #A80036; stroke-width: 1.0;" x1="189.5" x2="453" y1="378.2891" y2="378.2891"/><text fill="#000000" font-family="sans-serif" font-size="13" lengthAdjust="spacingAndGlyphs" textLength="136" x="311" y="373.2231">{ Certificate Verify* }</text><polygon fill="#A80036" points="195.5,403.4219,185.5,407.4219,195.5,411.4219,191.5,407.4219" style="stroke: #A80036; stroke-width: 1.0;"/><line style="stroke: #A80036; stroke-width: 1.0;" x1="189.5" x2="453" y1="407.4219" y2="407.4219"/><text fill="#000000" font-family="sans-serif" font-size="13" lengthAdjust="spacingAndGlyphs" textLength="76" x="371" y="402.356">{ Finished }</text><polygon fill="#A80036" points="38,432.5547,28,436.5547,38,440.5547,34,436.5547" style="stroke: #A80036; stroke-width: 1.0;"/><line style="stroke: #A80036; stroke-width: 1.0;" x1="32" x2="183.5" y1="436.5547" y2="436.5547"/><text fill="#000000" font-family="sans-serif" font-size="13" lengthAdjust="spacingAndGlyphs" textLength="76" x="101.5" y="431.4888">DID Resolve</text><polygon fill="#A80036" points="442,461.6875,452,465.6875,442,469.6875,446,465.6875" style="stroke: #A80036; stroke-width: 1.0;"/><line style="stroke: #A80036; stroke-width: 1.0;" x1="184.5" x2="448" y1="465.6875" y2="465.6875"/><text fill="#000000" font-family="sans-serif" font-size="13" lengthAdjust="spacingAndGlyphs" textLength="96" x="191.5" y="460.6216">{ Certificate* }</text><polygon fill="#A80036" points="442,490.8203,452,494.8203,442,498.8203,446,494.8203" style="stroke: #A80036; stroke-width: 1.0;"/><line style="stroke: #A80036; stroke-width: 1.0;" x1="184.5" x2="448" y1="494.8203" y2="494.8203"/><text fill="#000000" font-family="sans-serif" font-size="13" lengthAdjust="spacingAndGlyphs" textLength="136" x="191.5" y="489.7544">{ Certificate Verify* }</text><polygon fill="#A80036" points="442,519.9531,452,523.9531,442,527.9531,446,523.9531" style="stroke: #A80036; stroke-width: 1.0;"/><line style="stroke: #A80036; stroke-width: 1.0;" x1="184.5" x2="448" y1="523.9531" y2="523.9531"/><text fill="#000000" font-family="sans-serif" font-size="13" lengthAdjust="spacingAndGlyphs" textLength="76" x="191.5" y="518.8872">{ Finished }</text><polygon fill="#A80036" points="602,549.0859,612,553.0859,602,557.0859,606,553.0859" style="stroke: #A80036; stroke-width: 1.0;"/><line style="stroke: #A80036; stroke-width: 1.0;" x1="454" x2="608" y1="553.0859" y2="553.0859"/><text fill="#000000" font-family="sans-serif" font-size="13" lengthAdjust="spacingAndGlyphs" textLength="76" x="461" y="548.02">DID Resolve</text><!--MD5=[ac4c9b28eb7166cd738c7aa3d0a178f0]
@startuml full-hs
database IOTA as dlt1 order 1
database IOTA as dlt2 order 4
participant Client order 2
participant Server order 3
skinparam sequenceMessageAlign direction
skinparam ParticipantPadding 100
Client -> Server : Client Hello \n+ client_cert_types* \n+ server_cert_types* \n+ key_share* \n+ sig_algs* \n+ did_methods
Server -> Client : Server Hello \n+ key_share*
Server -> Client : { Encrypted Extensions \n+ client_cert_types* \n+ server_cert_types* }
Server -> Client : { Certificate request* \n+ did_methods* }
Server -> Client : { Certificate* }
Server -> Client : { Certificate Verify* }
Server -> Client : { Finished }
Client -> dlt1 : DID Resolve
Client -> Server : { Certificate* }
Client -> Server : { Certificate Verify* }
Client -> Server : { Finished }
Server -> dlt2 : DID Resolve
@enduml

PlantUML version 1.2020.02(Sun Mar 01 11:22:07 CET 2020)
(GPL source distribution)
Java Runtime: OpenJDK Runtime Environment
JVM: OpenJDK 64-Bit Server VM
Java Version: 11.0.20.1+1-post-Ubuntu-0ubuntu122.04
Operating System: Linux
Default Encoding: UTF-8
Language: en
Country: US
--></g></svg>